{
  "accessors": [
    {
      "bufferView": 2,
      "componentType": 5126,
      "count": 65532,
      "max": [
        0.3284246027469635,
        0.49987709522247314,
        0.18517224490642548
      ],
      "min": [
        0.005162948276847601,
        -0.5,
        -0.32053446769714355
      ],
      "type": "VEC3"
    },
    {
      "bufferView": 2,
      "byteOffset": 786384,
      "componentType": 5126,
      "count": 65532,
      "max": [
        0.9999690055847168,
        1.0,
        0.9998760223388672
      ],
      "min": [
        -0.9999690055847168,
        -0.9999690055847168,
        -0.9999690055847168
      ],
      "type": "VEC3"
    },
    {
      "bufferView": 3,
      "componentType": 5126,
      "count": 65532,
      "max": [
        0.9999481439590454,
        1.0,
        0.9994083046913147,
        1.0
      ],
      "min": [
        -0.9999328851699829,
        -0.9999630451202393,
        -0.9996578693389893,
        -1.0
      ],
      "type": "VEC4"
    },
    {
      "bufferView": 1,
      "componentType": 5126,
      "count": 65532,
      "max": [
        0.99886554479599,
        0.9914892911911011
      ],
      "min": [
        0.011185900308191776,
        0.01004897803068161
      ],
      "type": "VEC2"
    },
    {
      "bufferView": 1,
      "byteOffset": 524256,
      "componentType": 5126,
      "count": 65532,
      "max": [
        0.99886554479599,
        0.9914892911911011
      ],
      "min": [
        0.011185900308191776,
        0.01004897803068161
      ],
      "type": "VEC2"
    },
    {
      "bufferView": 1,
      "byteOffset": 1048512,
      "componentType": 5126,
      "count": 65532,
      "max": [
        0.99886554479599,
        0.9914892911911011
      ],
      "min": [
        0.011185900308191776,
        0.01004897803068161
      ],
      "type": "VEC2"
    },
    {
      "bufferView": 1,
      "byteOffset": 1572768,
      "componentType": 5126,
      "count": 65532,
      "max": [
        0.99886554479599,
        0.9914892911911011
      ],
      "min": [
        0.011185900308191776,
        0.01004897803068161
      ],
      "type": "VEC2"
    },
    {
      "bufferView": 0,
      "componentType": 5125,
      "count": 359049,
      "type": "SCALAR"
    },
    {
      "bufferView": 2,
      "byteOffset": 1572768,
      "componentType": 5126,
      "count": 65532,
      "max": [
        0.3276921212673187,
        0.49999916553497314,
        0.27447205781936646
      ],
      "min": [
        -0.3272545337677002,
        -0.49359092116355896,
        -0.14864912629127502
      ],
      "type": "VEC3"
    },
    {
      "bufferView": 2,
      "byteOffset": 2359152,
      "componentType": 5126,
      "count": 65532,
      "max": [
        1.0,
        1.0,
        1.0
      ],
      "min": [
        -1.0,
        -0.9998451471328735,
        -0.9999690055847168
      ],
      "type": "VEC3"
    },
    {
      "bufferView": 3,
      "byteOffset": 1048512,
      "componentType": 5126,
      "count": 65532,
      "max": [
        0.9999808669090271,
        1.0,
        0.9999686479568481,
        1.0
      ],
      "min": [
        -0.999828040599823,
        -0.9999998211860657,
        -0.9999938011169434,
        -1.0
      ],
      "type": "VEC4"
    },
    {
      "bufferView": 1,
      "byteOffset": 2097024,
      "componentType": 5126,
      "count": 65532,
      "max": [
        0.9998419880867004,
        0.9992784857749939
      ],
      "min": [
        0.00020083239360246807,
        0.009075326845049858
      ],
      "type": "VEC2"
    },
    {
      "bufferView": 1,
      "byteOffset": 2621280,
      "componentType": 5126,
      "count": 65532,
      "max": [
        0.9998419880867004,
        0.9992784857749939
      ],
      "min": [
        0.00020083239360246807,
        0.009075326845049858
      ],
      "type": "VEC2"
    },
    {
      "bufferView": 1,
      "byteOffset": 3145536,
      "componentType": 5126,
      "count": 65532,
      "max": [
        0.9998419880867004,
        0.9992784857749939
      ],
      "min": [
        0.00020083239360246807,
        0.009075326845049858
      ],
      "type": "VEC2"
    },
    {
      "bufferView": 1,
      "byteOffset": 3669792,
      "componentType": 5126,
      "count": 65532,
      "max": [
        0.9998419880867004,
        0.9992784857749939
      ],
      "min": [
        0.00020083239360246807,
        0.009075326845049858
      ],
      "type": "VEC2"
    },
    {
      "bufferView": 0,
      "byteOffset": 1436196,
      "componentType": 5125,
      "count": 336609,
      "type": "SCALAR"
    },
    {
      "bufferView": 2,
      "byteOffset": 3145536,
      "componentType": 5126,
      "count": 65532,
      "max": [
        0.31469085812568665,
        0.3571682870388031,
        0.3205563724040985
      ],
      "min": [
        -0.22446513175964355,
        -0.49359092116355896,
        0.06065303087234497
      ],
      "type": "VEC3"
    },
    {
      "bufferView": 2,
      "byteOffset": 3931920,
      "componentType": 5126,
      "count": 65532,
      "max": [
        0.9999690055847168,
        0.9999690055847168,
        1.0
      ],
      "min": [
        -0.9999690055847168,
        -0.9999690055847168,
        -0.9999690055847168
      ],
      "type": "VEC3"
    },
    {
      "bufferView": 3,
      "byteOffset": 2097024,
      "componentType": 5126,
      "count": 65532,
      "max": [
        0.9999990463256836,
        0.9999688863754272,
        0.9999922513961792,
        1.0
      ],
      "min": [
        -0.9999625086784363,
        -0.999976396560669,
        -1.0,
        -1.0
      ],
      "type": "VEC4"
    },
    {
      "bufferView": 1,
      "byteOffset": 4194048,
      "componentType": 5126,
      "count": 65532,
      "max": [
        0.99862140417099,
        0.9975745677947998
      ],
      "min": [
        0.011185900308191776,
        0.0034768329933285713
      ],
      "type": "VEC2"
    },
    {
      "bufferView": 1,
      "byteOffset": 4718304,
      "componentType": 5126,
      "count": 65532,
      "max": [
        0.99862140417099,
        0.9975745677947998
      ],
      "min": [
        0.011185900308191776,
        0.0034768329933285713
      ],
      "type": "VEC2"
    },
    {
      "bufferView": 1,
      "byteOffset": 5242560,
      "componentType": 5126,
      "count": 65532,
      "max": [
        0.99862140417099,
        0.9975745677947998
      ],
      "min": [
        0.011185900308191776,
        0.0034768329933285713
      ],
      "type": "VEC2"
    },
    {
      "bufferView": 1,
      "byteOffset": 5766816,
      "componentType": 5126,
      "count": 65532,
      "max": [
        0.99862140417099,
        0.9975745677947998
      ],
      "min": [
        0.011185900308191776,
        0.0034768329933285713
      ],
      "type": "VEC2"
    },
    {
      "bufferView": 0,
      "byteOffset": 2782632,
      "componentType": 5125,
      "count": 359910,
      "type": "SCALAR"
    },
    {
      "bufferView": 2,
      "byteOffset": 4718304,
      "componentType": 5126,
      "count": 40711,
      "max": [
        0.32683759927749634,
        0.498534232378006,
        0.20616960525512695
      ],
      "min": [
        -0.32841426134109497,
        -0.4885857403278351,
        -0.017842907458543777
      ],
      "type": "VEC3"
    },
    {
      "bufferView": 2,
      "byteOffset": 5206836,
      "componentType": 5126,
      "count": 40711,
      "max": [
        1.0,
        1.0,
        0.9999690055847168
      ],
      "min": [
        -0.9999690055847168,
        -0.9999380111694336,
        -0.9999690055847168
      ],
      "type": "VEC3"
    },
    {
      "bufferView": 3,
      "byteOffset": 3145536,
      "componentType": 5126,
      "count": 40711,
      "max": [
        0.9998736381530762,
        0.9999994039535522,
        0.9998783469200134,
        1.0
      ],
      "min": [
        -0.9994984865188599,
        -1.0,
        -0.999968409538269,
        -1.0
      ],
      "type": "VEC4"
    },
    {
      "bufferView": 1,
      "byteOffset": 6291072,
      "componentType": 5126,
      "count": 40711,
      "max": [
        0.99886554479599,
        0.9997652769088745
      ],
      "min": [
        0.00020083239360246807,
        0.0029900074005126953
      ],
      "type": "VEC2"
    },
    {
      "bufferView": 1,
      "byteOffset": 6616760,
      "componentType": 5126,
      "count": 40711,
      "max": [
        0.99886554479599,
        0.9997652769088745
      ],
      "min": [
        0.00020083239360246807,
        0.0029900074005126953
      ],
      "type": "VEC2"
    },
    {
      "bufferView": 1,
      "byteOffset": 6942448,
      "componentType": 5126,
      "count": 40711,
      "max": [
        0.99886554479599,
        0.9997652769088745
      ],
      "min": [
        0.00020083239360246807,
        0.0029900074005126953
      ],
      "type": "VEC2"
    },
    {
      "bufferView": 1,
      "byteOffset": 7268136,
      "componentType": 5126,
      "count": 40711,
      "max": [
        0.99886554479599,
        0.9997652769088745
      ],
      "min": [
        0.00020083239360246807,
        0.0029900074005126953
      ],
      "type": "VEC2"
    },
    {
      "bufferView": 0,
      "byteOffset": 4222272,
      "componentType": 5125,
      "count": 203925,
      "type": "SCALAR"
    }
  ],
  "asset": {
    "extras": {
      "author": "Vortex3D (https://sketchfab.com/zulon)",
      "license": "CC-BY-4.0 (http://creativecommons.org/licenses/by/4.0/)",
      "source": "https://sketchfab.com/3d-models/cyberpunk-lost-planet-da564302071f49139dc727c3d33b09ca",
      "title": "Cyberpunk lost planet"
    },
    "generator": "Sketchfab-16.62.0",
    "version": "2.0"
  },
  "bufferViews": [
    {
      "buffer": 0,
      "byteLength": 5037972,
      "name": "floatBufferViews",
      "target": 34963
    },
    {
      "buffer": 0,
      "byteLength": 7593824,
      "byteOffset": 5037972,
      "byteStride": 8,
      "name": "floatBufferViews",
      "target": 34962
    },
    {
      "buffer": 0,
      "byteLength": 5695368,
      "byteOffset": 12631796,
      "byteStride": 12,
      "name": "floatBufferViews",
      "target": 34962
    },
    {
      "buffer": 0,
      "byteLength": 3796912,
      "byteOffset": 18327164,
      "byteStride": 16,
      "name": "floatBufferViews",
      "target": 34962
    }
  ],
  "buffers": [
    {
      "byteLength": 22124076,
      "uri": "scene.bin"
    }
  ],
  "extensionsUsed": [
    "KHR_materials_specular"
  ],
  "images": [
    {
      "uri": "textures/tripo_material_9818af64-8415-4c49-a5e5-2b34bb735157_baseColor.jpeg"
    },
    {
      "uri": "textures/tripo_material_9818af64-8415-4c49-a5e5-2b34bb735157_metallicRoughness.png"
    },
    {
      "uri": "textures/tripo_material_9818af64-8415-4c49-a5e5-2b34bb735157_normal.jpeg"
    }
  ],
  "materials": [
    {
      "extensions": {
        "KHR_materials_specular": {
          "specularColorFactor": [
            1.0,
            1.0,
            1.0
          ],
          "specularFactor": 0.3276388560164833
        }
      },
      "name": "tripo_material_9818af64-8415-4c49-a5e5-2b34bb735157",
      "normalTexture": {
        "index": 2,
        "texCoord": 2
      },
      "pbrMetallicRoughness": {
        "baseColorTexture": {
          "index": 0
        },
        "metallicFactor": 0.40051497269114605,
        "metallicRoughnessTexture": {
          "index": 1,
          "texCoord": 1
        },
        "roughnessFactor": 0.35193089490803753
      }
    }
  ],
  "meshes": [
    {
      "name": "Object_0",
      "primitives": [
        {
          "attributes": {
            "NORMAL": 1,
            "POSITION": 0,
            "TANGENT": 2,
            "TEXCOORD_0": 3,
            "TEXCOORD_1": 4,
            "TEXCOORD_2": 5,
            "TEXCOORD_3": 6
          },
          "indices": 7,
          "material": 0,
          "mode": 4
        }
      ]
    },
    {
      "name": "Object_1",
      "primitives": [
        {
          "attributes": {
            "NORMAL": 9,
            "POSITION": 8,
            "TANGENT": 10,
            "TEXCOORD_0": 11,
            "TEXCOORD_1": 12,
            "TEXCOORD_2": 13,
            "TEXCOORD_3": 14
          },
          "indices": 15,
          "material": 0,
          "mode": 4
        }
      ]
    },
    {
      "name": "Object_2",
      "primitives": [
        {
          "attributes": {
            "NORMAL": 17,
            "POSITION": 16,
            "TANGENT": 18,
            "TEXCOORD_0": 19,
            "TEXCOORD_1": 20,
            "TEXCOORD_2": 21,
            "TEXCOORD_3": 22
          },
          "indices": 23,
          "material": 0,
          "mode": 4
        }
      ]
    },
    {
      "name": "Object_3",
      "primitives": [
        {
          "attributes": {
            "NORMAL": 25,
            "POSITION": 24,
            "TANGENT": 26,
            "TEXCOORD_0": 27,
            "TEXCOORD_1": 28,
            "TEXCOORD_2": 29,
            "TEXCOORD_3": 30
          },
          "indices": 31,
          "material": 0,
          "mode": 4
        }
      ]
    }
  ],
  "nodes": [
    {
      "children": [
        1
      ],
      "matrix": [
        1.8748522996902466,
        0.0,
        0.0,
        0.0,
        0.0,
        4.163008381775072e-16,
        -1.8748522996902466,
        0.0,
        0.0,
        1.8748522996902466,
        4.163008381775072e-16,
        0.0,
        0.0,
        0.0,
        0.0,
        1.0
      ],
      "name": "Sketchfab_model"
    },
    {
      "children": [
        2
      ],
      "name": "root"
    },
    {
      "children": [
        3
      ],
      "matrix": [
        1.0,
        0.0,
        0.0,
        0.0,
        0.0,
        2.220446049250313e-16,
        1.0,
        0.0,
        0.0,
        -1.0,
        2.220446049250313e-16,
        0.0,
        0.0,
        0.0,
        0.0,
        1.0
      ],
      "name": "GLTF_SceneRootNode"
    },
    {
      "children": [
        4,
        5,
        6,
        7
      ],
      "name": "tripo_node_9818af64-8415-4c49-a5e5-2b34bb735157_0"
    },
    {
      "mesh": 0,
      "name": "Object_4"
    },
    {
      "mesh": 1,
      "name": "Object_5"
    },
    {
      "mesh": 2,
      "name": "Object_6"
    },
    {
      "mesh": 3,
      "name": "Object_7"
    }
  ],
  "samplers": [
    {
      "magFilter": 9729,
      "minFilter": 9987,
      "wrapS": 10497,
      "wrapT": 10497
    }
  ],
  "scene": 0,
  "scenes": [
    {
      "name": "Sketchfab_Scene",
      "nodes": [
        0
      ]
    }
  ],
  "textures": [
    {
      "sampler": 0,
      "source": 0
    },
    {
      "sampler": 0,
      "source": 1
    },
    {
      "sampler": 0,
      "source": 2
    }
  ]
}
