{
  "accessors": [
    {
      "bufferView": 2,
      "componentType": 5126,
      "count": 4154,
      "max": [
        0.6486080288887024,
        0.23046399652957916,
        1.6404540538787842
      ],
      "min": [
        -0.6486070156097412,
        -0.044224001467227936,
        0.921875
      ],
      "type": "VEC3"
    },
    {
      "bufferView": 2,
      "byteOffset": 49848,
      "componentType": 5126,
      "count": 4154,
      "max": [
        0.9994196891784668,
        0.9990784525871277,
        0.9959931969642639
      ],
      "min": [
        -0.9994196891784668,
        -0.9999686479568481,
        -0.997882068157196
      ],
      "type": "VEC3"
    },
    {
      "bufferView": 3,
      "componentType": 5126,
      "count": 4154,
      "max": [
        0.999460756778717,
        0.999853253364563,
        0.9997134208679199,
        1.0
      ],
      "min": [
        -0.9992340207099915,
        -0.9983214735984802,
        -0.994101881980896,
        1.0
      ],
      "type": "VEC4"
    },
    {
      "bufferView": 1,
      "componentType": 5126,
      "count": 4154,
      "max": [
        0.9937000274658203,
        0.9923999905586243
      ],
      "min": [
        0.005799999926239252,
        0.002199999988079071
      ],
      "type": "VEC2"
    },
    {
      "bufferView": 0,
      "componentType": 5125,
      "count": 22236,
      "type": "SCALAR"
    },
    {
      "bufferView": 2,
      "byteOffset": 99696,
      "componentType": 5126,
      "count": 1747,
      "max": [
        0.18977999687194824,
        0.2114569991827011,
        1.6290509700775146
      ],
      "min": [
        -0.18977899849414825,
        -0.13871000707149506,
        0.9716789722442627
      ],
      "type": "VEC3"
    },
    {
      "bufferView": 2,
      "byteOffset": 120660,
      "componentType": 5126,
      "count": 1747,
      "max": [
        0.9992722272872925,
        0.9997592568397522,
        0.7691031098365784
      ],
      "min": [
        -0.9992722272872925,
        -0.9999946355819702,
        -0.9192773103713989
      ],
      "type": "VEC3"
    },
    {
      "bufferView": 3,
      "byteOffset": 66464,
      "componentType": 5126,
      "count": 1747,
      "max": [
        0.9323769807815552,
        0.9858360886573792,
        0.9999958872795105,
        1.0
      ],
      "min": [
        -0.9396206140518188,
        -0.9192824959754944,
        -0.4931294023990631,
        1.0
      ],
      "type": "VEC4"
    },
    {
      "bufferView": 1,
      "byteOffset": 33232,
      "componentType": 5126,
      "count": 1747,
      "max": [
        0.9965000152587891,
        0.9907000064849854
      ],
      "min": [
        0.017100000753998756,
        0.006500000134110451
      ],
      "type": "VEC2"
    },
    {
      "bufferView": 0,
      "byteOffset": 88944,
      "componentType": 5125,
      "count": 9792,
      "type": "SCALAR"
    },
    {
      "bufferView": 2,
      "byteOffset": 141624,
      "componentType": 5126,
      "count": 24002,
      "max": [
        0.1886029988527298,
        0.2198909968137741,
        1.6809040307998657
      ],
      "min": [
        -0.1886029988527298,
        -0.1421249955892563,
        1.1552870273590088
      ],
      "type": "VEC3"
    },
    {
      "bufferView": 2,
      "byteOffset": 429648,
      "componentType": 5126,
      "count": 24002,
      "max": [
        0.9999583959579468,
        0.9999942779541016,
        0.9998601675033569
      ],
      "min": [
        -0.9999583959579468,
        -0.999998927116394,
        -0.9999194145202637
      ],
      "type": "VEC3"
    },
    {
      "bufferView": 3,
      "byteOffset": 94416,
      "componentType": 5126,
      "count": 24002,
      "max": [
        0.999998152256012,
        0.9999979138374329,
        0.999992311000824,
        1.0
      ],
      "min": [
        -0.9999811053276062,
        -0.9999929070472717,
        -0.999998927116394,
        -1.0
      ],
      "type": "VEC4"
    },
    {
      "bufferView": 1,
      "byteOffset": 47208,
      "componentType": 5126,
      "count": 24002,
      "max": [
        1.003000020980835,
        0.9983000159263611
      ],
      "min": [
        0.001500000013038516,
        0.0020000000949949026
      ],
      "type": "VEC2"
    },
    {
      "bufferView": 0,
      "byteOffset": 128112,
      "componentType": 5125,
      "count": 117408,
      "type": "SCALAR"
    },
    {
      "bufferView": 2,
      "byteOffset": 717672,
      "componentType": 5126,
      "count": 1806,
      "max": [
        0.19103500247001648,
        0.18301799893379211,
        1.63031005859375
      ],
      "min": [
        -0.19103500247001648,
        -0.10164099931716919,
        1.184615969657898
      ],
      "type": "VEC3"
    },
    {
      "bufferView": 2,
      "byteOffset": 739344,
      "componentType": 5126,
      "count": 1806,
      "max": [
        0.9999608993530273,
        0.9949164986610413,
        0.8140711784362793
      ],
      "min": [
        -0.9999608993530273,
        -0.9456797242164612,
        -0.8513971567153931
      ],
      "type": "VEC3"
    },
    {
      "bufferView": 3,
      "byteOffset": 478448,
      "componentType": 5126,
      "count": 1806,
      "max": [
        0.9896143078804016,
        0.9650449752807617,
        0.9966995120048523,
        1.0
      ],
      "min": [
        -0.9896138906478882,
        -0.8158054947853088,
        0.13983620703220367,
        1.0
      ],
      "type": "VEC4"
    },
    {
      "bufferView": 1,
      "byteOffset": 239224,
      "componentType": 5126,
      "count": 1806,
      "max": [
        0.9261999726295471,
        0.9995999932289124
      ],
      "min": [
        9.999999747378752e-05,
        0.00039999998989515007
      ],
      "type": "VEC2"
    },
    {
      "bufferView": 0,
      "byteOffset": 597744,
      "componentType": 5125,
      "count": 9624,
      "type": "SCALAR"
    },
    {
      "bufferView": 2,
      "byteOffset": 761016,
      "componentType": 5126,
      "count": 362,
      "max": [
        0.0677959993481636,
        -0.14095699787139893,
        1.7506890296936035
      ],
      "min": [
        -0.06868699938058853,
        -0.16255000233650208,
        1.7288639545440674
      ],
      "type": "VEC3"
    },
    {
      "bufferView": 2,
      "byteOffset": 765360,
      "componentType": 5126,
      "count": 362,
      "max": [
        0.9999940395355225,
        0.9723680019378662,
        0.9728230834007263
      ],
      "min": [
        -0.9999998807907104,
        -0.9723878502845764,
        -0.9728032350540161
      ],
      "type": "VEC3"
    },
    {
      "bufferView": 3,
      "byteOffset": 507344,
      "componentType": 5126,
      "count": 362,
      "max": [
        0.9727855324745178,
        0.9997335076332092,
        0.9997037053108215,
        1.0
      ],
      "min": [
        -0.9731643795967102,
        -0.02198203280568123,
        -0.0768977701663971,
        1.0
      ],
      "type": "VEC4"
    },
    {
      "bufferView": 1,
      "byteOffset": 253672,
      "componentType": 5126,
      "count": 362,
      "max": [
        0.9677000045776367,
        0.5544999837875366
      ],
      "min": [
        0.5001000165939331,
        0.0020000000949949026
      ],
      "type": "VEC2"
    },
    {
      "bufferView": 0,
      "byteOffset": 636240,
      "componentType": 5125,
      "count": 2040,
      "type": "SCALAR"
    },
    {
      "bufferView": 2,
      "byteOffset": 769704,
      "componentType": 5126,
      "count": 3026,
      "max": [
        0.17332999408245087,
        0.18865999579429626,
        1.8960779905319214
      ],
      "min": [
        -0.17332999408245087,
        -0.21792499721050262,
        1.591547966003418
      ],
      "type": "VEC3"
    },
    {
      "bufferView": 2,
      "byteOffset": 806016,
      "componentType": 5126,
      "count": 3026,
      "max": [
        0.9998968839645386,
        0.9986140727996826,
        0.999808132648468
      ],
      "min": [
        -0.9998780488967896,
        -0.9999425411224365,
        -0.999879002571106
      ],
      "type": "VEC3"
    },
    {
      "bufferView": 3,
      "byteOffset": 513136,
      "componentType": 5126,
      "count": 3026,
      "max": [
        0.9999929666519165,
        0.9999361634254456,
        0.9997975826263428,
        1.0
      ],
      "min": [
        -0.996490478515625,
        -0.9984145164489746,
        -0.8782269954681396,
        1.0
      ],
      "type": "VEC4"
    },
    {
      "bufferView": 1,
      "byteOffset": 256568,
      "componentType": 5126,
      "count": 3026,
      "max": [
        0.9980000257492065,
        0.992900013923645
      ],
      "min": [
        0.012299999594688416,
        0.016499999910593033
      ],
      "type": "VEC2"
    },
    {
      "bufferView": 0,
      "byteOffset": 644400,
      "componentType": 5125,
      "count": 17172,
      "type": "SCALAR"
    },
    {
      "bufferView": 2,
      "byteOffset": 842328,
      "componentType": 5126,
      "count": 5714,
      "max": [
        0.10642900317907333,
        0.17232100665569305,
        1.9009029865264893
      ],
      "min": [
        -0.10589099675416946,
        -0.21814300119876862,
        1.5721139907836914
      ],
      "type": "VEC3"
    },
    {
      "bufferView": 2,
      "byteOffset": 910896,
      "componentType": 5126,
      "count": 5714,
      "max": [
        0.9999467134475708,
        0.9999362230300903,
        0.9999291896820068
      ],
      "min": [
        -0.999945878982544,
        -0.9997939467430115,
        -0.9991620182991028
      ],
      "type": "VEC3"
    },
    {
      "bufferView": 3,
      "byteOffset": 561552,
      "componentType": 5126,
      "count": 5714,
      "max": [
        0.9964314103126526,
        0.9999268054962158,
        0.9996785521507263,
        1.0
      ],
      "min": [
        -0.9998453855514526,
        -0.9999744892120361,
        -0.9998887181282043,
        -1.0
      ],
      "type": "VEC4"
    },
    {
      "bufferView": 1,
      "byteOffset": 280776,
      "componentType": 5126,
      "count": 5714,
      "max": [
        0.9686999917030334,
        0.9980000257492065
      ],
      "min": [
        0.002099999925121665,
        0.002300000051036477
      ],
      "type": "VEC2"
    },
    {
      "bufferView": 0,
      "byteOffset": 713088,
      "componentType": 5125,
      "count": 30720,
      "type": "SCALAR"
    },
    {
      "bufferView": 2,
      "byteOffset": 979464,
      "componentType": 5126,
      "count": 1582,
      "max": [
        0.14779900014400482,
        0.18725800514221191,
        1.7368680238723755
      ],
      "min": [
        -0.1405549943447113,
        -0.09839200228452682,
        1.56455397605896
      ],
      "type": "VEC3"
    },
    {
      "bufferView": 2,
      "byteOffset": 998448,
      "componentType": 5126,
      "count": 1582,
      "max": [
        0.9959002137184143,
        0.9996907114982605,
        0.9877145886421204
      ],
      "min": [
        -0.9891421794891357,
        -0.9999054670333862,
        -0.9980770349502563
      ],
      "type": "VEC3"
    },
    {
      "bufferView": 3,
      "byteOffset": 652976,
      "componentType": 5126,
      "count": 1582,
      "max": [
        0.9998985528945923,
        0.9925341606140137,
        0.9995336532592773,
        1.0
      ],
      "min": [
        -0.9968260526657104,
        -0.9959195852279663,
        -0.9990859031677246,
        1.0
      ],
      "type": "VEC4"
    },
    {
      "bufferView": 1,
      "byteOffset": 326488,
      "componentType": 5126,
      "count": 1582,
      "max": [
        0.8709999918937683,
        0.9998999834060669
      ],
      "min": [
        9.999999747378752e-05,
        9.999999747378752e-05
      ],
      "type": "VEC2"
    },
    {
      "bufferView": 0,
      "byteOffset": 835968,
      "componentType": 5125,
      "count": 8592,
      "type": "SCALAR"
    },
    {
      "bufferView": 2,
      "byteOffset": 1017432,
      "componentType": 5126,
      "count": 5629,
      "max": [
        0.28261300921440125,
        0.18470199406147003,
        1.2187310457229614
      ],
      "min": [
        -0.28261300921440125,
        -0.14408500492572784,
        -0.008035000413656235
      ],
      "type": "VEC3"
    },
    {
      "bufferView": 2,
      "byteOffset": 1084980,
      "componentType": 5126,
      "count": 5629,
      "max": [
        0.9999798536300659,
        0.9995697140693665,
        0.9720001220703125
      ],
      "min": [
        -0.9999735355377197,
        -0.9996716380119324,
        -0.9998374581336975
      ],
      "type": "VEC3"
    },
    {
      "bufferView": 3,
      "byteOffset": 678288,
      "componentType": 5126,
      "count": 5629,
      "max": [
        0.9988637566566467,
        0.9981535077095032,
        0.9999906420707703,
        1.0
      ],
      "min": [
        -0.9986814856529236,
        -0.9991155862808228,
        -0.7094321250915527,
        1.0
      ],
      "type": "VEC4"
    },
    {
      "bufferView": 1,
      "byteOffset": 339144,
      "componentType": 5126,
      "count": 5629,
      "max": [
        0.9919000267982483,
        0.9940999746322632
      ],
      "min": [
        0.006200000178068876,
        0.007699999958276749
      ],
      "type": "VEC2"
    },
    {
      "bufferView": 0,
      "byteOffset": 870336,
      "componentType": 5125,
      "count": 32016,
      "type": "SCALAR"
    },
    {
      "bufferView": 2,
      "byteOffset": 1152528,
      "componentType": 5126,
      "count": 4250,
      "max": [
        0.2547079920768738,
        0.14721499383449554,
        0.8503220081329346
      ],
      "min": [
        -0.2547079920768738,
        -0.14664900302886963,
        0.4221870005130768
      ],
      "type": "VEC3"
    },
    {
      "bufferView": 2,
      "byteOffset": 1203528,
      "componentType": 5126,
      "count": 4250,
      "max": [
        0.9998611211776733,
        0.9999619722366333,
        0.9925639629364014
      ],
      "min": [
        -0.9998611211776733,
        -0.9992777109146118,
        -0.9945873022079468
      ],
      "type": "VEC3"
    },
    {
      "bufferView": 3,
      "byteOffset": 768352,
      "componentType": 5126,
      "count": 4250,
      "max": [
        0.9990431070327759,
        0.997222363948822,
        0.9999575018882751,
        1.0
      ],
      "min": [
        -0.9990431070327759,
        -0.987143874168396,
        -0.9990904331207275,
        -1.0
      ],
      "type": "VEC4"
    },
    {
      "bufferView": 1,
      "byteOffset": 384176,
      "componentType": 5126,
      "count": 4250,
      "max": [
        0.7868000268936157,
        0.9998999834060669
      ],
      "min": [
        9.999999747378752e-05,
        9.999999747378752e-05
      ],
      "type": "VEC2"
    },
    {
      "bufferView": 0,
      "byteOffset": 998400,
      "componentType": 5125,
      "count": 24432,
      "type": "SCALAR"
    },
    {
      "bufferView": 2,
      "byteOffset": 1254528,
      "componentType": 5126,
      "count": 11086,
      "max": [
        0.29128900170326233,
        0.18342900276184082,
        0.774412989616394
      ],
      "min": [
        -0.29128900170326233,
        -0.14874599874019623,
        -0.01396199967712164
      ],
      "type": "VEC3"
    },
    {
      "bufferView": 2,
      "byteOffset": 1387560,
      "componentType": 5126,
      "count": 11086,
      "max": [
        0.9999231100082397,
        0.9998891353607178,
        0.999699056148529
      ],
      "min": [
        -0.9999231100082397,
        -0.9998753070831299,
        -0.999768078327179
      ],
      "type": "VEC3"
    },
    {
      "bufferView": 3,
      "byteOffset": 836352,
      "componentType": 5126,
      "count": 11086,
      "max": [
        0.9994927644729614,
        0.999966025352478,
        0.9996867179870605,
        1.0
      ],
      "min": [
        -0.9994927644729614,
        -0.9998356699943542,
        -0.9997705221176147,
        -1.0
      ],
      "type": "VEC4"
    },
    {
      "bufferView": 1,
      "byteOffset": 418176,
      "componentType": 5126,
      "count": 11086,
      "max": [
        0.9977999925613403,
        0.9979000091552734
      ],
      "min": [
        0.002199999988079071,
        0.002199999988079071
      ],
      "type": "VEC2"
    },
    {
      "bufferView": 0,
      "byteOffset": 1096128,
      "componentType": 5125,
      "count": 61776,
      "type": "SCALAR"
    },
    {
      "bufferView": 2,
      "byteOffset": 1520592,
      "componentType": 5126,
      "count": 4804,
      "max": [
        0.28546398878097534,
        0.19550000131130219,
        0.40684598684310913
      ],
      "min": [
        -0.28546398878097534,
        -0.05000000074505806,
        0.06414899975061417
      ],
      "type": "VEC3"
    },
    {
      "bufferView": 2,
      "byteOffset": 1578240,
      "componentType": 5126,
      "count": 4804,
      "max": [
        0.99954754114151,
        0.999755322933197,
        0.999951958656311
      ],
      "min": [
        -0.99954754114151,
        -0.9999740123748779,
        -0.9983385801315308
      ],
      "type": "VEC3"
    },
    {
      "bufferView": 3,
      "byteOffset": 1013728,
      "componentType": 5126,
      "count": 4804,
      "max": [
        0.9985672831535339,
        0.9999358057975769,
        0.9999774098396301,
        1.0
      ],
      "min": [
        -0.9985672831535339,
        -0.9993529319763184,
        -0.9998703598976135,
        -1.0
      ],
      "type": "VEC4"
    },
    {
      "bufferView": 1,
      "byteOffset": 506864,
      "componentType": 5126,
      "count": 4804,
      "max": [
        0.640999972820282,
        0.9977999925613403
      ],
      "min": [
        0.002199999988079071,
        0.002199999988079071
      ],
      "type": "VEC2"
    },
    {
      "bufferView": 0,
      "byteOffset": 1343232,
      "componentType": 5125,
      "count": 27360,
      "type": "SCALAR"
    },
    {
      "bufferView": 2,
      "byteOffset": 1635888,
      "componentType": 5126,
      "count": 3250,
      "max": [
        0.05147600173950195,
        -0.12453299760818481,
        1.6910749673843384
      ],
      "min": [
        -0.051329001784324646,
        -0.18967099487781525,
        1.649925947189331
      ],
      "type": "VEC3"
    },
    {
      "bufferView": 2,
      "byteOffset": 1674888,
      "componentType": 5126,
      "count": 3250,
      "max": [
        0.9996935725212097,
        0.9979856014251709,
        0.9990454912185669
      ],
      "min": [
        -0.9986599087715149,
        -0.999534547328949,
        -0.9981554746627808
      ],
      "type": "VEC3"
    },
    {
      "bufferView": 3,
      "byteOffset": 1090592,
      "componentType": 5126,
      "count": 3250,
      "max": [
        0.9998829960823059,
        0.9979995489120483,
        0.9991603493690491,
        1.0
      ],
      "min": [
        -0.9998202919960022,
        -0.9993970394134521,
        -0.9990085959434509,
        1.0
      ],
      "type": "VEC4"
    },
    {
      "bufferView": 1,
      "byteOffset": 545296,
      "componentType": 5126,
      "count": 3250,
      "max": [
        0.9674000144004822,
        0.9980000257492065
      ],
      "min": [
        0.08529999852180481,
        0.0035000001080334187
      ],
      "type": "VEC2"
    },
    {
      "bufferView": 0,
      "byteOffset": 1452672,
      "componentType": 5125,
      "count": 17376,
      "type": "SCALAR"
    },
    {
      "bufferView": 2,
      "byteOffset": 1713888,
      "componentType": 5126,
      "count": 4193,
      "max": [
        0.09611199796199799,
        0.5800830125808716,
        1.2028319835662842
      ],
      "min": [
        -0.0969650000333786,
        0.015887999907135963,
        0.0883060023188591
      ],
      "type": "VEC3"
    },
    {
      "bufferView": 2,
      "byteOffset": 1764204,
      "componentType": 5126,
      "count": 4193,
      "max": [
        0.9998914003372192,
        0.9992372393608093,
        0.9984216094017029
      ],
      "min": [
        -0.9997090697288513,
        -0.9996398091316223,
        -0.9994312524795532
      ],
      "type": "VEC3"
    },
    {
      "bufferView": 3,
      "byteOffset": 1142592,
      "componentType": 5126,
      "count": 4193,
      "max": [
        0.9999628663063049,
        0.9995576739311218,
        0.9878358840942383,
        1.0
      ],
      "min": [
        -0.9998508095741272,
        -0.9935832619667053,
        -0.9996331334114075,
        1.0
      ],
      "type": "VEC4"
    },
    {
      "bufferView": 1,
      "byteOffset": 571296,
      "componentType": 5126,
      "count": 4193,
      "max": [
        0.4941999912261963,
        0.9182999730110168
      ],
      "min": [
        0.0020000000949949026,
        0.0027000000700354576
      ],
      "type": "VEC2"
    },
    {
      "bufferView": 0,
      "byteOffset": 1522176,
      "componentType": 5125,
      "count": 24312,
      "type": "SCALAR"
    },
    {
      "bufferView": 2,
      "byteOffset": 1814520,
      "componentType": 5126,
      "count": 1716,
      "max": [
        0.4964450001716614,
        0.1850620061159134,
        1.4231770038604736
      ],
      "min": [
        -0.4964450001716614,
        0.028850000351667404,
        1.1839139461517334
      ],
      "type": "VEC3"
    },
    {
      "bufferView": 2,
      "byteOffset": 1835112,
      "componentType": 5126,
      "count": 1716,
      "max": [
        0.9912374019622803,
        0.9997839331626892,
        0.9957455992698669
      ],
      "min": [
        -0.9912374019622803,
        -0.9992810487747192,
        -0.9283716678619385
      ],
      "type": "VEC3"
    },
    {
      "bufferView": 3,
      "byteOffset": 1209680,
      "componentType": 5126,
      "count": 1716,
      "max": [
        0.9461252093315125,
        0.9962583184242249,
        0.947881817817688,
        1.0
      ],
      "min": [
        -0.9461252093315125,
        -0.9966219067573547,
        -0.9168426990509033,
        -1.0
      ],
      "type": "VEC4"
    },
    {
      "bufferView": 1,
      "byteOffset": 604840,
      "componentType": 5126,
      "count": 1716,
      "max": [
        0.9936000108718872,
        0.588699996471405
      ],
      "min": [
        0.0017999999690800905,
        0.002099999925121665
      ],
      "type": "VEC2"
    },
    {
      "bufferView": 0,
      "byteOffset": 1619424,
      "componentType": 5125,
      "count": 8964,
      "type": "SCALAR"
    },
    {
      "bufferView": 2,
      "byteOffset": 1855704,
      "componentType": 5126,
      "count": 4722,
      "max": [
        0.6405150294303894,
        0.23416200280189514,
        1.5054919719696045
      ],
      "min": [
        -0.6405150294303894,
        -0.03981899842619896,
        1.0148210525512695
      ],
      "type": "VEC3"
    },
    {
      "bufferView": 2,
      "byteOffset": 1912368,
      "componentType": 5126,
      "count": 4722,
      "max": [
        0.9999414682388306,
        0.9988728761672974,
        0.992519199848175
      ],
      "min": [
        -0.9999414682388306,
        -0.9996466040611267,
        -0.9993201494216919
      ],
      "type": "VEC3"
    },
    {
      "bufferView": 3,
      "byteOffset": 1237136,
      "componentType": 5126,
      "count": 4722,
      "max": [
        0.9978386163711548,
        0.9999766945838928,
        0.9370075464248657,
        1.0
      ],
      "min": [
        -0.9978386163711548,
        -0.9993473887443542,
        -0.9687053561210632,
        -1.0
      ],
      "type": "VEC4"
    },
    {
      "bufferView": 1,
      "byteOffset": 618568,
      "componentType": 5126,
      "count": 4722,
      "max": [
        0.989300012588501,
        0.9783999919891357
      ],
      "min": [
        0.0026000000070780516,
        0.002899999963119626
      ],
      "type": "VEC2"
    },
    {
      "bufferView": 0,
      "byteOffset": 1655280,
      "componentType": 5125,
      "count": 25248,
      "type": "SCALAR"
    },
    {
      "bufferView": 2,
      "byteOffset": 1969032,
      "componentType": 5126,
      "count": 1447,
      "max": [
        0.20168299973011017,
        0.12750199437141418,
        1.2228419780731201
      ],
      "min": [
        -0.20168299973011017,
        -0.11157199740409851,
        1.0787359476089478
      ],
      "type": "VEC3"
    },
    {
      "bufferView": 2,
      "byteOffset": 1986396,
      "componentType": 5126,
      "count": 1447,
      "max": [
        0.9982938170433044,
        0.9991902112960815,
        0.9988614320755005
      ],
      "min": [
        -0.9982938170433044,
        -0.9973739385604858,
        -0.9978830218315125
      ],
      "type": "VEC3"
    },
    {
      "bufferView": 3,
      "byteOffset": 1312688,
      "componentType": 5126,
      "count": 1447,
      "max": [
        0.9855459332466125,
        0.9981468915939331,
        0.9939788579940796,
        1.0
      ],
      "min": [
        -0.9984957575798035,
        -0.9982162117958069,
        -0.9997029900550842,
        -1.0
      ],
      "type": "VEC4"
    },
    {
      "bufferView": 1,
      "byteOffset": 656344,
      "componentType": 5126,
      "count": 1447,
      "max": [
        0.7493000030517578,
        0.6978999972343445
      ],
      "min": [
        0.002099999925121665,
        0.1664000004529953
      ],
      "type": "VEC2"
    },
    {
      "bufferView": 0,
      "byteOffset": 1756272,
      "componentType": 5125,
      "count": 7824,
      "type": "SCALAR"
    },
    {
      "bufferView": 2,
      "byteOffset": 2003760,
      "componentType": 5126,
      "count": 1684,
      "max": [
        0.21714800596237183,
        0.10900100320577621,
        1.1028239727020264
      ],
      "min": [
        -0.21714800596237183,
        -0.11774300038814545,
        0.8994960188865662
      ],
      "type": "VEC3"
    },
    {
      "bufferView": 2,
      "byteOffset": 2023968,
      "componentType": 5126,
      "count": 1684,
      "max": [
        0.9991862773895264,
        0.9955889582633972,
        0.9526037573814392
      ],
      "min": [
        -0.9991862773895264,
        -0.9993985891342163,
        -0.9588948488235474
      ],
      "type": "VEC3"
    },
    {
      "bufferView": 3,
      "byteOffset": 1335840,
      "componentType": 5126,
      "count": 1684,
      "max": [
        0.9965206980705261,
        0.9842230081558228,
        0.99993896484375,
        1.0
      ],
      "min": [
        -0.9987109899520874,
        -0.8800672292709351,
        -0.997978687286377,
        -1.0
      ],
      "type": "VEC4"
    },
    {
      "bufferView": 1,
      "byteOffset": 667920,
      "componentType": 5126,
      "count": 1684,
      "max": [
        0.9894999861717224,
        0.9979000091552734
      ],
      "min": [
        0.002099999925121665,
        0.002099999925121665
      ],
      "type": "VEC2"
    },
    {
      "bufferView": 0,
      "byteOffset": 1787568,
      "componentType": 5125,
      "count": 8400,
      "type": "SCALAR"
    },
    {
      "bufferView": 2,
      "byteOffset": 2044176,
      "componentType": 5126,
      "count": 1318,
      "max": [
        0.22248899936676025,
        0.1500760018825531,
        1.2114640474319458
      ],
      "min": [
        -0.22248899936676025,
        -0.13895900547504425,
        0.9261279702186584
      ],
      "type": "VEC3"
    },
    {
      "bufferView": 2,
      "byteOffset": 2059992,
      "componentType": 5126,
      "count": 1318,
      "max": [
        0.9976316690444946,
        0.9999958276748657,
        0.5395084619522095
      ],
      "min": [
        -0.9976316690444946,
        -0.9991755485534668,
        -0.9999874830245972
      ],
      "type": "VEC3"
    },
    {
      "bufferView": 3,
      "byteOffset": 1362784,
      "componentType": 5126,
      "count": 1318,
      "max": [
        0.8093918561935425,
        0.9207689166069031,
        0.23039352893829346,
        1.0
      ],
      "min": [
        -0.9621430039405823,
        -0.8077508211135864,
        -0.9983689188957214,
        -1.0
      ],
      "type": "VEC4"
    },
    {
      "bufferView": 1,
      "byteOffset": 681392,
      "componentType": 5126,
      "count": 1318,
      "max": [
        0.7444000244140625,
        0.9900000095367432
      ],
      "min": [
        0.0024999999441206455,
        0.0015999999595806003
      ],
      "type": "VEC2"
    },
    {
      "bufferView": 0,
      "byteOffset": 1821168,
      "componentType": 5125,
      "count": 6930,
      "type": "SCALAR"
    },
    {
      "bufferView": 2,
      "byteOffset": 2075808,
      "componentType": 5126,
      "count": 2017,
      "max": [
        0.1498049944639206,
        0.15304100513458252,
        1.2417700290679932
      ],
      "min": [
        -0.1498049944639206,
        -0.1546500027179718,
        0.5970900058746338
      ],
      "type": "VEC3"
    },
    {
      "bufferView": 2,
      "byteOffset": 2100012,
      "componentType": 5126,
      "count": 2017,
      "max": [
        0.9999192953109741,
        0.999862790107727,
        0.9989689588546753
      ],
      "min": [
        -0.9999192953109741,
        -0.9997579455375671,
        -0.9993115663528442
      ],
      "type": "VEC3"
    },
    {
      "bufferView": 3,
      "byteOffset": 1383872,
      "componentType": 5126,
      "count": 2017,
      "max": [
        0.9481825828552246,
        0.9992581009864807,
        0.998650074005127,
        1.0
      ],
      "min": [
        -0.8921562433242798,
        -0.9941645860671997,
        -0.540301501750946,
        -1.0
      ],
      "type": "VEC4"
    },
    {
      "bufferView": 1,
      "byteOffset": 691936,
      "componentType": 5126,
      "count": 2017,
      "max": [
        0.8253999948501587,
        0.9779999852180481
      ],
      "min": [
        0.0020000000949949026,
        0.0019000000320374966
      ],
      "type": "VEC2"
    },
    {
      "bufferView": 0,
      "byteOffset": 1848888,
      "componentType": 5125,
      "count": 10944,
      "type": "SCALAR"
    },
    {
      "bufferView": 2,
      "byteOffset": 2124216,
      "componentType": 5126,
      "count": 2166,
      "max": [
        0.29581600427627563,
        0.18014100193977356,
        1.6407270431518555
      ],
      "min": [
        -0.29581600427627563,
        -0.03727800026535988,
        1.474761962890625
      ],
      "type": "VEC3"
    },
    {
      "bufferView": 2,
      "byteOffset": 2150208,
      "componentType": 5126,
      "count": 2166,
      "max": [
        0.998725950717926,
        0.9995346665382385,
        0.9991878271102905
      ],
      "min": [
        -0.998725950717926,
        -0.9987119436264038,
        -0.7790577411651611
      ],
      "type": "VEC3"
    },
    {
      "bufferView": 3,
      "byteOffset": 1416144,
      "componentType": 5126,
      "count": 2166,
      "max": [
        0.9942914247512817,
        0.6554723978042603,
        0.9982537627220154,
        1.0
      ],
      "min": [
        -0.999802827835083,
        -0.9999083876609802,
        -0.9150791168212891,
        1.0
      ],
      "type": "VEC4"
    },
    {
      "bufferView": 1,
      "byteOffset": 708072,
      "componentType": 5126,
      "count": 2166,
      "max": [
        0.9937000274658203,
        0.9965000152587891
      ],
      "min": [
        0.0035000001080334187,
        0.0035000001080334187
      ],
      "type": "VEC2"
    },
    {
      "bufferView": 0,
      "byteOffset": 1892664,
      "componentType": 5125,
      "count": 12504,
      "type": "SCALAR"
    },
    {
      "bufferView": 2,
      "byteOffset": 2176200,
      "componentType": 5126,
      "count": 5240,
      "max": [
        0.3124539852142334,
        0.45514699816703796,
        1.1874350309371948
      ],
      "min": [
        -0.3124539852142334,
        -0.23924900591373444,
        0.48261699080467224
      ],
      "type": "VEC3"
    },
    {
      "bufferView": 2,
      "byteOffset": 2239080,
      "componentType": 5126,
      "count": 5240,
      "max": [
        0.9999074935913086,
        0.9983487725257874,
        0.9983336925506592
      ],
      "min": [
        -0.9999074935913086,
        -0.998364269733429,
        -0.9971649646759033
      ],
      "type": "VEC3"
    },
    {
      "bufferView": 3,
      "byteOffset": 1450800,
      "componentType": 5126,
      "count": 5240,
      "max": [
        0.9999707341194153,
        0.9993571639060974,
        0.9992810487747192,
        1.0
      ],
      "min": [
        -0.9999707341194153,
        -0.9986209273338318,
        -0.9994565844535828,
        -1.0
      ],
      "type": "VEC4"
    },
    {
      "bufferView": 1,
      "byteOffset": 725400,
      "componentType": 5126,
      "count": 5240,
      "max": [
        0.6280999779701233,
        0.9994999766349792
      ],
      "min": [
        0.00139999995008111,
        9.999999747378752e-05
      ],
      "type": "VEC2"
    },
    {
      "bufferView": 0,
      "byteOffset": 1942680,
      "componentType": 5125,
      "count": 28416,
      "type": "SCALAR"
    },
    {
      "bufferView": 2,
      "byteOffset": 2301960,
      "componentType": 5126,
      "count": 1634,
      "max": [
        0.10176499933004379,
        0.3081260025501251,
        1.205780029296875
      ],
      "min": [
        -0.10176499933004379,
        0.06312700361013412,
        0.9053170084953308
      ],
      "type": "VEC3"
    },
    {
      "bufferView": 2,
      "byteOffset": 2321568,
      "componentType": 5126,
      "count": 1634,
      "max": [
        0.9999053478240967,
        0.9998934268951416,
        0.9998992681503296
      ],
      "min": [
        -0.9999053478240967,
        -0.9465296864509583,
        -0.9999219179153442
      ],
      "type": "VEC3"
    },
    {
      "bufferView": 3,
      "byteOffset": 1534640,
      "componentType": 5126,
      "count": 1634,
      "max": [
        0.9852352142333984,
        0.997773289680481,
        0.9998934268951416,
        1.0
      ],
      "min": [
        -0.9854111671447754,
        -0.9998048543930054,
        -0.8327053785324097,
        -1.0
      ],
      "type": "VEC4"
    },
    {
      "bufferView": 1,
      "byteOffset": 767320,
      "componentType": 5126,
      "count": 1634,
      "max": [
        0.573199987411499,
        0.9912999868392944
      ],
      "min": [
        0.002199999988079071,
        0.002199999988079071
      ],
      "type": "VEC2"
    },
    {
      "bufferView": 0,
      "byteOffset": 2056344,
      "componentType": 5125,
      "count": 9060,
      "type": "SCALAR"
    },
    {
      "bufferView": 2,
      "byteOffset": 2341176,
      "componentType": 5126,
      "count": 3782,
      "max": [
        0.09275499731302261,
        0.28051498532295227,
        1.1087290048599243
      ],
      "min": [
        -0.09275499731302261,
        0.12386299669742584,
        0.9149010181427002
      ],
      "type": "VEC3"
    },
    {
      "bufferView": 2,
      "byteOffset": 2386560,
      "componentType": 5126,
      "count": 3782,
      "max": [
        0.9998917579650879,
        0.9936814308166504,
        0.9986256957054138
      ],
      "min": [
        -0.9998917579650879,
        -0.9979310631752014,
        -0.9988899827003479
      ],
      "type": "VEC3"
    },
    {
      "bufferView": 3,
      "byteOffset": 1560784,
      "componentType": 5126,
      "count": 3782,
      "max": [
        1.0,
        0.9984481334686279,
        0.9956029057502747,
        1.0
      ],
      "min": [
        -1.0,
        -0.9988926649093628,
        -0.9990171194076538,
        -1.0
      ],
      "type": "VEC4"
    },
    {
      "bufferView": 1,
      "byteOffset": 780392,
      "componentType": 5126,
      "count": 3782,
      "max": [
        0.9251000285148621,
        0.9980000257492065
      ],
      "min": [
        0.004399999976158142,
        0.0024999999441206455
      ],
      "type": "VEC2"
    },
    {
      "bufferView": 0,
      "byteOffset": 2092584,
      "componentType": 5125,
      "count": 20328,
      "type": "SCALAR"
    },
    {
      "bufferView": 2,
      "byteOffset": 2431944,
      "componentType": 5126,
      "count": 449,
      "max": [
        0.10234300047159195,
        0.2986550033092499,
        1.2062890529632568
      ],
      "min": [
        -0.10234300047159195,
        0.12570500373840332,
        1.0280059576034546
      ],
      "type": "VEC3"
    },
    {
      "bufferView": 2,
      "byteOffset": 2437332,
      "componentType": 5126,
      "count": 449,
      "max": [
        0.9677431583404541,
        0.9859060049057007,
        0.9683218002319336
      ],
      "min": [
        -0.9677431583404541,
        -0.9846382737159729,
        -0.9839218258857727
      ],
      "type": "VEC3"
    },
    {
      "bufferView": 3,
      "byteOffset": 1621296,
      "componentType": 5126,
      "count": 449,
      "max": [
        0.9934303760528564,
        0.973576545715332,
        0.9987960457801819,
        1.0
      ],
      "min": [
        -0.8514054417610168,
        -0.9906606674194336,
        -0.9825834631919861,
        1.0
      ],
      "type": "VEC4"
    },
    {
      "bufferView": 1,
      "byteOffset": 810648,
      "componentType": 5126,
      "count": 449,
      "max": [
        0.9905999898910522,
        0.9998999834060669
      ],
      "min": [
        9.999999747378752e-05,
        9.999999747378752e-05
      ],
      "type": "VEC2"
    },
    {
      "bufferView": 0,
      "byteOffset": 2173896,
      "componentType": 5125,
      "count": 2508,
      "type": "SCALAR"
    }
  ],
  "asset": {
    "extras": {
      "author": "7PLUS (https://sketchfab.com/7plus)",
      "license": "CC-BY-4.0 (http://creativecommons.org/licenses/by/4.0/)",
      "source": "https://sketchfab.com/3d-models/anthro-shark-6e9d487cbce94dd58a4591fec7aff8f9",
      "title": "ANTHRO SHARK"
    },
    "generator": "Sketchfab-12.66.0",
    "version": "2.0"
  },
  "bufferViews": [
    {
      "buffer": 0,
      "byteLength": 2183928,
      "name": "floatBufferViews",
      "target": 34963
    },
    {
      "buffer": 0,
      "byteLength": 814240,
      "byteOffset": 2183928,
      "byteStride": 8,
      "name": "floatBufferViews",
      "target": 34962
    },
    {
      "buffer": 0,
      "byteLength": 2442720,
      "byteOffset": 2998168,
      "byteStride": 12,
      "name": "floatBufferViews",
      "target": 34962
    },
    {
      "buffer": 0,
      "byteLength": 1628480,
      "byteOffset": 5440888,
      "byteStride": 16,
      "name": "floatBufferViews",
      "target": 34962
    }
  ],
  "buffers": [
    {
      "byteLength": 7069368,
      "uri": "scene.bin"
    }
  ],
  "images": [
    {
      "uri": "textures/material_baseColor.png"
    },
    {
      "uri": "textures/material_metallicRoughness.png"
    },
    {
      "uri": "textures/material_normal.png"
    },
    {
      "uri": "textures/CHEST_baseColor.png"
    },
    {
      "uri": "textures/CHEST_metallicRoughness.png"
    },
    {
      "uri": "textures/CHEST_normal.png"
    },
    {
      "uri": "textures/CHEST1_baseColor.png"
    },
    {
      "uri": "textures/CHEST1_metallicRoughness.png"
    },
    {
      "uri": "textures/CHEST1_normal.png"
    },
    {
      "uri": "textures/CHEST2_baseColor.png"
    },
    {
      "uri": "textures/CHEST2_metallicRoughness.png"
    },
    {
      "uri": "textures/CHEST2_normal.png"
    },
    {
      "uri": "textures/material_4_baseColor.png"
    },
    {
      "uri": "textures/material_4_metallicRoughness.png"
    },
    {
      "uri": "textures/material_4_normal.png"
    },
    {
      "uri": "textures/HEAD_baseColor.png"
    },
    {
      "uri": "textures/HEAD_metallicRoughness.png"
    },
    {
      "uri": "textures/HEAD_normal.png"
    },
    {
      "uri": "textures/HEAD1_baseColor.png"
    },
    {
      "uri": "textures/HEAD1_metallicRoughness.png"
    },
    {
      "uri": "textures/HEAD1_normal.png"
    },
    {
      "uri": "textures/HEAD2_baseColor.png"
    },
    {
      "uri": "textures/HEAD2_metallicRoughness.png"
    },
    {
      "uri": "textures/HEAD2_normal.png"
    },
    {
      "uri": "textures/material_8_baseColor.png"
    },
    {
      "uri": "textures/material_8_metallicRoughness.png"
    },
    {
      "uri": "textures/material_8_normal.png"
    },
    {
      "uri": "textures/Legam1_baseColor.png"
    },
    {
      "uri": "textures/Legam1_metallicRoughness.png"
    },
    {
      "uri": "textures/Legam1_normal.png"
    },
    {
      "uri": "textures/Legam2_baseColor.png"
    },
    {
      "uri": "textures/Legam2_metallicRoughness.png"
    },
    {
      "uri": "textures/Legam2_normal.png"
    },
    {
      "uri": "textures/Legam3_baseColor.png"
    },
    {
      "uri": "textures/Legam3_metallicRoughness.png"
    },
    {
      "uri": "textures/Legam3_normal.png"
    },
    {
      "uri": "textures/TEETHEYETAIL.001_metallicRoughness.png"
    },
    {
      "uri": "textures/arm1_baseColor.png"
    },
    {
      "uri": "textures/arm1_metallicRoughness.png"
    },
    {
      "uri": "textures/arm1_normal.png"
    },
    {
      "uri": "textures/arm2_baseColor.png"
    },
    {
      "uri": "textures/arm2_metallicRoughness.png"
    },
    {
      "uri": "textures/arm2_normal.png"
    },
    {
      "uri": "textures/material_16_baseColor.png"
    },
    {
      "uri": "textures/material_16_metallicRoughness.png"
    },
    {
      "uri": "textures/material_16_normal.png"
    },
    {
      "uri": "textures/pelvis1_baseColor.png"
    },
    {
      "uri": "textures/pelvis1_metallicRoughness.png"
    },
    {
      "uri": "textures/pelvis1_normal.png"
    },
    {
      "uri": "textures/pelvis2_baseColor.png"
    },
    {
      "uri": "textures/pelvis2_metallicRoughness.png"
    },
    {
      "uri": "textures/pelvis2_normal.png"
    },
    {
      "uri": "textures/pelvis3_baseColor.png"
    },
    {
      "uri": "textures/pelvis3_metallicRoughness.png"
    },
    {
      "uri": "textures/pelvis3_normal.png"
    },
    {
      "uri": "textures/sholderam_baseColor.png"
    },
    {
      "uri": "textures/sholderam_metallicRoughness.png"
    },
    {
      "uri": "textures/sholderam_normal.png"
    },
    {
      "uri": "textures/sword1.001_baseColor.png"
    },
    {
      "uri": "textures/sword1.001_metallicRoughness.png"
    },
    {
      "uri": "textures/sword1.001_normal.png"
    },
    {
      "uri": "textures/tail1_baseColor.png"
    },
    {
      "uri": "textures/tail1_metallicRoughness.png"
    },
    {
      "uri": "textures/tail1_normal.png"
    },
    {
      "uri": "textures/tail2_baseColor.png"
    },
    {
      "uri": "textures/tail2_metallicRoughness.png"
    },
    {
      "uri": "textures/tail2_normal.png"
    },
    {
      "uri": "textures/tail3_baseColor.png"
    },
    {
      "uri": "textures/tail3_metallicRoughness.png"
    },
    {
      "uri": "textures/tail3_normal.png"
    }
  ],
  "materials": [
    {
      "doubleSided": true,
      "name": "material",
      "normalTexture": {
        "index": 2
      },
      "occlusionTexture": {
        "index": 1
      },
      "pbrMetallicRoughness": {
        "baseColorTexture": {
          "index": 0
        },
        "metallicRoughnessTexture": {
          "index": 1
        },
        "roughnessFactor": 0.7
      }
    },
    {
      "doubleSided": true,
      "name": "CHEST",
      "normalTexture": {
        "index": 5
      },
      "occlusionTexture": {
        "index": 4
      },
      "pbrMetallicRoughness": {
        "baseColorTexture": {
          "index": 3
        },
        "metallicRoughnessTexture": {
          "index": 4
        },
        "roughnessFactor": 0.7
      }
    },
    {
      "doubleSided": true,
      "name": "CHEST1",
      "normalTexture": {
        "index": 8
      },
      "pbrMetallicRoughness": {
        "baseColorTexture": {
          "index": 6
        },
        "metallicRoughnessTexture": {
          "index": 7
        }
      }
    },
    {
      "doubleSided": true,
      "name": "CHEST2",
      "normalTexture": {
        "index": 11
      },
      "pbrMetallicRoughness": {
        "baseColorTexture": {
          "index": 9
        },
        "metallicFactor": 0.0,
        "metallicRoughnessTexture": {
          "index": 10
        }
      }
    },
    {
      "doubleSided": true,
      "name": "material_4",
      "normalTexture": {
        "index": 14
      },
      "pbrMetallicRoughness": {
        "baseColorTexture": {
          "index": 12
        },
        "metallicRoughnessTexture": {
          "index": 13
        }
      }
    },
    {
      "doubleSided": true,
      "name": "HEAD",
      "normalTexture": {
        "index": 17
      },
      "occlusionTexture": {
        "index": 16
      },
      "pbrMetallicRoughness": {
        "baseColorTexture": {
          "index": 15
        },
        "metallicRoughnessTexture": {
          "index": 16
        },
        "roughnessFactor": 0.7
      }
    },
    {
      "doubleSided": true,
      "name": "HEAD1",
      "normalTexture": {
        "index": 20
      },
      "pbrMetallicRoughness": {
        "baseColorTexture": {
          "index": 18
        },
        "metallicRoughnessTexture": {
          "index": 19
        }
      }
    },
    {
      "doubleSided": true,
      "name": "HEAD2",
      "normalTexture": {
        "index": 23
      },
      "pbrMetallicRoughness": {
        "baseColorTexture": {
          "index": 21
        },
        "metallicFactor": 0.0,
        "metallicRoughnessTexture": {
          "index": 22
        }
      }
    },
    {
      "doubleSided": true,
      "name": "material_8",
      "normalTexture": {
        "index": 26
      },
      "pbrMetallicRoughness": {
        "baseColorTexture": {
          "index": 24
        },
        "metallicRoughnessTexture": {
          "index": 25
        },
        "roughnessFactor": 0.75
      }
    },
    {
      "doubleSided": true,
      "name": "Legam1",
      "normalTexture": {
        "index": 29
      },
      "pbrMetallicRoughness": {
        "baseColorTexture": {
          "index": 27
        },
        "metallicRoughnessTexture": {
          "index": 28
        }
      }
    },
    {
      "doubleSided": true,
      "name": "Legam2",
      "normalTexture": {
        "index": 32
      },
      "pbrMetallicRoughness": {
        "baseColorTexture": {
          "index": 30
        },
        "metallicRoughnessTexture": {
          "index": 31
        }
      }
    },
    {
      "doubleSided": true,
      "name": "Legam3",
      "normalTexture": {
        "index": 35
      },
      "pbrMetallicRoughness": {
        "baseColorTexture": {
          "index": 33
        },
        "metallicRoughnessTexture": {
          "index": 34
        }
      }
    },
    {
      "doubleSided": true,
      "name": "TEETHEYETAIL",
      "normalTexture": {
        "index": 14
      },
      "pbrMetallicRoughness": {
        "baseColorTexture": {
          "index": 12
        },
        "metallicRoughnessTexture": {
          "index": 13
        }
      }
    },
    {
      "doubleSided": true,
      "name": "TEETHEYETAIL.001",
      "normalTexture": {
        "index": 14
      },
      "pbrMetallicRoughness": {
        "baseColorTexture": {
          "index": 12
        },
        "metallicRoughnessTexture": {
          "index": 36
        }
      }
    },
    {
      "doubleSided": true,
      "name": "arm1",
      "normalTexture": {
        "index": 39
      },
      "pbrMetallicRoughness": {
        "baseColorTexture": {
          "index": 37
        },
        "metallicRoughnessTexture": {
          "index": 38
        }
      }
    },
    {
      "doubleSided": true,
      "name": "arm2",
      "normalTexture": {
        "index": 42
      },
      "pbrMetallicRoughness": {
        "baseColorTexture": {
          "index": 40
        },
        "metallicRoughnessTexture": {
          "index": 41
        }
      }
    },
    {
      "doubleSided": true,
      "name": "material_16",
      "normalTexture": {
        "index": 45
      },
      "pbrMetallicRoughness": {
        "baseColorTexture": {
          "index": 43
        },
        "metallicRoughnessTexture": {
          "index": 44
        }
      }
    },
    {
      "doubleSided": true,
      "name": "pelvis1",
      "normalTexture": {
        "index": 48
      },
      "pbrMetallicRoughness": {
        "baseColorTexture": {
          "index": 46
        },
        "metallicRoughnessTexture": {
          "index": 47
        }
      }
    },
    {
      "doubleSided": true,
      "name": "pelvis2",
      "normalTexture": {
        "index": 51
      },
      "pbrMetallicRoughness": {
        "baseColorTexture": {
          "index": 49
        },
        "metallicRoughnessTexture": {
          "index": 50
        }
      }
    },
    {
      "doubleSided": true,
      "name": "pelvis3",
      "normalTexture": {
        "index": 54
      },
      "pbrMetallicRoughness": {
        "baseColorTexture": {
          "index": 52
        },
        "metallicRoughnessTexture": {
          "index": 53
        }
      }
    },
    {
      "doubleSided": true,
      "name": "sholderam",
      "normalTexture": {
        "index": 57
      },
      "pbrMetallicRoughness": {
        "baseColorTexture": {
          "index": 55
        },
        "metallicRoughnessTexture": {
          "index": 56
        }
      }
    },
    {
      "doubleSided": true,
      "name": "sword1.001",
      "normalTexture": {
        "index": 60
      },
      "pbrMetallicRoughness": {
        "baseColorTexture": {
          "index": 58
        },
        "metallicRoughnessTexture": {
          "index": 59
        }
      }
    },
    {
      "doubleSided": true,
      "name": "tail1",
      "normalTexture": {
        "index": 63
      },
      "pbrMetallicRoughness": {
        "baseColorTexture": {
          "index": 61
        },
        "metallicRoughnessTexture": {
          "index": 62
        }
      }
    },
    {
      "doubleSided": true,
      "name": "tail2",
      "normalTexture": {
        "index": 66
      },
      "pbrMetallicRoughness": {
        "baseColorTexture": {
          "index": 64
        },
        "metallicRoughnessTexture": {
          "index": 65
        }
      }
    },
    {
      "doubleSided": true,
      "name": "tail3",
      "normalTexture": {
        "index": 69
      },
      "pbrMetallicRoughness": {
        "baseColorTexture": {
          "index": 67
        },
        "metallicRoughnessTexture": {
          "index": 68
        }
      }
    }
  ],
  "meshes": [
    {
      "name": "Object_0",
      "primitives": [
        {
          "attributes": {
            "NORMAL": 1,
            "POSITION": 0,
            "TANGENT": 2,
            "TEXCOORD_0": 3
          },
          "indices": 4,
          "material": 0,
          "mode": 4
        }
      ]
    },
    {
      "name": "Object_1",
      "primitives": [
        {
          "attributes": {
            "NORMAL": 6,
            "POSITION": 5,
            "TANGENT": 7,
            "TEXCOORD_0": 8
          },
          "indices": 9,
          "material": 1,
          "mode": 4
        }
      ]
    },
    {
      "name": "Object_2",
      "primitives": [
        {
          "attributes": {
            "NORMAL": 11,
            "POSITION": 10,
            "TANGENT": 12,
            "TEXCOORD_0": 13
          },
          "indices": 14,
          "material": 2,
          "mode": 4
        }
      ]
    },
    {
      "name": "Object_3",
      "primitives": [
        {
          "attributes": {
            "NORMAL": 16,
            "POSITION": 15,
            "TANGENT": 17,
            "TEXCOORD_0": 18
          },
          "indices": 19,
          "material": 3,
          "mode": 4
        }
      ]
    },
    {
      "name": "Object_4",
      "primitives": [
        {
          "attributes": {
            "NORMAL": 21,
            "POSITION": 20,
            "TANGENT": 22,
            "TEXCOORD_0": 23
          },
          "indices": 24,
          "material": 4,
          "mode": 4
        }
      ]
    },
    {
      "name": "Object_5",
      "primitives": [
        {
          "attributes": {
            "NORMAL": 26,
            "POSITION": 25,
            "TANGENT": 27,
            "TEXCOORD_0": 28
          },
          "indices": 29,
          "material": 5,
          "mode": 4
        }
      ]
    },
    {
      "name": "Object_6",
      "primitives": [
        {
          "attributes": {
            "NORMAL": 31,
            "POSITION": 30,
            "TANGENT": 32,
            "TEXCOORD_0": 33
          },
          "indices": 34,
          "material": 6,
          "mode": 4
        }
      ]
    },
    {
      "name": "Object_7",
      "primitives": [
        {
          "attributes": {
            "NORMAL": 36,
            "POSITION": 35,
            "TANGENT": 37,
            "TEXCOORD_0": 38
          },
          "indices": 39,
          "material": 7,
          "mode": 4
        }
      ]
    },
    {
      "name": "Object_8",
      "primitives": [
        {
          "attributes": {
            "NORMAL": 41,
            "POSITION": 40,
            "TANGENT": 42,
            "TEXCOORD_0": 43
          },
          "indices": 44,
          "material": 8,
          "mode": 4
        }
      ]
    },
    {
      "name": "Object_9",
      "primitives": [
        {
          "attributes": {
            "NORMAL": 46,
            "POSITION": 45,
            "TANGENT": 47,
            "TEXCOORD_0": 48
          },
          "indices": 49,
          "material": 9,
          "mode": 4
        }
      ]
    },
    {
      "name": "Object_10",
      "primitives": [
        {
          "attributes": {
            "NORMAL": 51,
            "POSITION": 50,
            "TANGENT": 52,
            "TEXCOORD_0": 53
          },
          "indices": 54,
          "material": 10,
          "mode": 4
        }
      ]
    },
    {
      "name": "Object_11",
      "primitives": [
        {
          "attributes": {
            "NORMAL": 56,
            "POSITION": 55,
            "TANGENT": 57,
            "TEXCOORD_0": 58
          },
          "indices": 59,
          "material": 11,
          "mode": 4
        }
      ]
    },
    {
      "name": "Object_12",
      "primitives": [
        {
          "attributes": {
            "NORMAL": 61,
            "POSITION": 60,
            "TANGENT": 62,
            "TEXCOORD_0": 63
          },
          "indices": 64,
          "material": 12,
          "mode": 4
        }
      ]
    },
    {
      "name": "Object_13",
      "primitives": [
        {
          "attributes": {
            "NORMAL": 66,
            "POSITION": 65,
            "TANGENT": 67,
            "TEXCOORD_0": 68
          },
          "indices": 69,
          "material": 13,
          "mode": 4
        }
      ]
    },
    {
      "name": "Object_14",
      "primitives": [
        {
          "attributes": {
            "NORMAL": 71,
            "POSITION": 70,
            "TANGENT": 72,
            "TEXCOORD_0": 73
          },
          "indices": 74,
          "material": 14,
          "mode": 4
        }
      ]
    },
    {
      "name": "Object_15",
      "primitives": [
        {
          "attributes": {
            "NORMAL": 76,
            "POSITION": 75,
            "TANGENT": 77,
            "TEXCOORD_0": 78
          },
          "indices": 79,
          "material": 15,
          "mode": 4
        }
      ]
    },
    {
      "name": "Object_16",
      "primitives": [
        {
          "attributes": {
            "NORMAL": 81,
            "POSITION": 80,
            "TANGENT": 82,
            "TEXCOORD_0": 83
          },
          "indices": 84,
          "material": 16,
          "mode": 4
        }
      ]
    },
    {
      "name": "Object_17",
      "primitives": [
        {
          "attributes": {
            "NORMAL": 86,
            "POSITION": 85,
            "TANGENT": 87,
            "TEXCOORD_0": 88
          },
          "indices": 89,
          "material": 17,
          "mode": 4
        }
      ]
    },
    {
      "name": "Object_18",
      "primitives": [
        {
          "attributes": {
            "NORMAL": 91,
            "POSITION": 90,
            "TANGENT": 92,
            "TEXCOORD_0": 93
          },
          "indices": 94,
          "material": 18,
          "mode": 4
        }
      ]
    },
    {
      "name": "Object_19",
      "primitives": [
        {
          "attributes": {
            "NORMAL": 96,
            "POSITION": 95,
            "TANGENT": 97,
            "TEXCOORD_0": 98
          },
          "indices": 99,
          "material": 19,
          "mode": 4
        }
      ]
    },
    {
      "name": "Object_20",
      "primitives": [
        {
          "attributes": {
            "NORMAL": 101,
            "POSITION": 100,
            "TANGENT": 102,
            "TEXCOORD_0": 103
          },
          "indices": 104,
          "material": 20,
          "mode": 4
        }
      ]
    },
    {
      "name": "Object_21",
      "primitives": [
        {
          "attributes": {
            "NORMAL": 106,
            "POSITION": 105,
            "TANGENT": 107,
            "TEXCOORD_0": 108
          },
          "indices": 109,
          "material": 21,
          "mode": 4
        }
      ]
    },
    {
      "name": "Object_22",
      "primitives": [
        {
          "attributes": {
            "NORMAL": 111,
            "POSITION": 110,
            "TANGENT": 112,
            "TEXCOORD_0": 113
          },
          "indices": 114,
          "material": 22,
          "mode": 4
        }
      ]
    },
    {
      "name": "Object_23",
      "primitives": [
        {
          "attributes": {
            "NORMAL": 116,
            "POSITION": 115,
            "TANGENT": 117,
            "TEXCOORD_0": 118
          },
          "indices": 119,
          "material": 23,
          "mode": 4
        }
      ]
    },
    {
      "name": "Object_24",
      "primitives": [
        {
          "attributes": {
            "NORMAL": 121,
            "POSITION": 120,
            "TANGENT": 122,
            "TEXCOORD_0": 123
          },
          "indices": 124,
          "material": 24,
          "mode": 4
        }
      ]
    }
  ],
  "nodes": [
    {
      "children": [
        1
      ],
      "matrix": [
        3.023740530014038,
        0.0,
        0.0,
        0.0,
        0.0,
        6.714052713827719e-16,
        -3.023740530014038,
        0.0,
        0.0,
        3.023740530014038,
        6.714052713827719e-16,
        0.0,
        0.0,
        0.0,
        0.0,
        1.0
      ],
      "name": "Sketchfab_model"
    },
    {
      "children": [
        2,
        3,
        4,
        5,
        6,
        7,
        8,
        9,
        10,
        11,
        12,
        13,
        14,
        15,
        16,
        17,
        18,
        19,
        20,
        21,
        22,
        23,
        24,
        25,
        26
      ],
      "name": "SHARK FULL ARMOR.obj.cleaner.materialmerger.gles"
    },
    {
      "mesh": 0,
      "name": "Object_2"
    },
    {
      "mesh": 1,
      "name": "Object_3"
    },
    {
      "mesh": 2,
      "name": "Object_4"
    },
    {
      "mesh": 3,
      "name": "Object_5"
    },
    {
      "mesh": 4,
      "name": "Object_6"
    },
    {
      "mesh": 5,
      "name": "Object_7"
    },
    {
      "mesh": 6,
      "name": "Object_8"
    },
    {
      "mesh": 7,
      "name": "Object_9"
    },
    {
      "mesh": 8,
      "name": "Object_10"
    },
    {
      "mesh": 9,
      "name": "Object_11"
    },
    {
      "mesh": 10,
      "name": "Object_12"
    },
    {
      "mesh": 11,
      "name": "Object_13"
    },
    {
      "mesh": 12,
      "name": "Object_14"
    },
    {
      "mesh": 13,
      "name": "Object_15"
    },
    {
      "mesh": 14,
      "name": "Object_16"
    },
    {
      "mesh": 15,
      "name": "Object_17"
    },
    {
      "mesh": 16,
      "name": "Object_18"
    },
    {
      "mesh": 17,
      "name": "Object_19"
    },
    {
      "mesh": 18,
      "name": "Object_20"
    },
    {
      "mesh": 19,
      "name": "Object_21"
    },
    {
      "mesh": 20,
      "name": "Object_22"
    },
    {
      "mesh": 21,
      "name": "Object_23"
    },
    {
      "mesh": 22,
      "name": "Object_24"
    },
    {
      "mesh": 23,
      "name": "Object_25"
    },
    {
      "mesh": 24,
      "name": "Object_26"
    }
  ],
  "samplers": [
    {
      "magFilter": 9729,
      "minFilter": 9987,
      "wrapS": 10497,
      "wrapT": 10497
    }
  ],
  "scene": 0,
  "scenes": [
    {
      "name": "Sketchfab_Scene",
      "nodes": [
        0
      ]
    }
  ],
  "textures": [
    {
      "sampler": 0,
      "source": 0
    },
    {
      "sampler": 0,
      "source": 1
    },
    {
      "sampler": 0,
      "source": 2
    },
    {
      "sampler": 0,
      "source": 3
    },
    {
      "sampler": 0,
      "source": 4
    },
    {
      "sampler": 0,
      "source": 5
    },
    {
      "sampler": 0,
      "source": 6
    },
    {
      "sampler": 0,
      "source": 7
    },
    {
      "sampler": 0,
      "source": 8
    },
    {
      "sampler": 0,
      "source": 9
    },
    {
      "sampler": 0,
      "source": 10
    },
    {
      "sampler": 0,
      "source": 11
    },
    {
      "sampler": 0,
      "source": 12
    },
    {
      "sampler": 0,
      "source": 13
    },
    {
      "sampler": 0,
      "source": 14
    },
    {
      "sampler": 0,
      "source": 15
    },
    {
      "sampler": 0,
      "source": 16
    },
    {
      "sampler": 0,
      "source": 17
    },
    {
      "sampler": 0,
      "source": 18
    },
    {
      "sampler": 0,
      "source": 19
    },
    {
      "sampler": 0,
      "source": 20
    },
    {
      "sampler": 0,
      "source": 21
    },
    {
      "sampler": 0,
      "source": 22
    },
    {
      "sampler": 0,
      "source": 23
    },
    {
      "sampler": 0,
      "source": 24
    },
    {
      "sampler": 0,
      "source": 25
    },
    {
      "sampler": 0,
      "source": 26
    },
    {
      "sampler": 0,
      "source": 27
    },
    {
      "sampler": 0,
      "source": 28
    },
    {
      "sampler": 0,
      "source": 29
    },
    {
      "sampler": 0,
      "source": 30
    },
    {
      "sampler": 0,
      "source": 31
    },
    {
      "sampler": 0,
      "source": 32
    },
    {
      "sampler": 0,
      "source": 33
    },
    {
      "sampler": 0,
      "source": 34
    },
    {
      "sampler": 0,
      "source": 35
    },
    {
      "sampler": 0,
      "source": 36
    },
    {
      "sampler": 0,
      "source": 37
    },
    {
      "sampler": 0,
      "source": 38
    },
    {
      "sampler": 0,
      "source": 39
    },
    {
      "sampler": 0,
      "source": 40
    },
    {
      "sampler": 0,
      "source": 41
    },
    {
      "sampler": 0,
      "source": 42
    },
    {
      "sampler": 0,
      "source": 43
    },
    {
      "sampler": 0,
      "source": 44
    },
    {
      "sampler": 0,
      "source": 45
    },
    {
      "sampler": 0,
      "source": 46
    },
    {
      "sampler": 0,
      "source": 47
    },
    {
      "sampler": 0,
      "source": 48
    },
    {
      "sampler": 0,
      "source": 49
    },
    {
      "sampler": 0,
      "source": 50
    },
    {
      "sampler": 0,
      "source": 51
    },
    {
      "sampler": 0,
      "source": 52
    },
    {
      "sampler": 0,
      "source": 53
    },
    {
      "sampler": 0,
      "source": 54
    },
    {
      "sampler": 0,
      "source": 55
    },
    {
      "sampler": 0,
      "source": 56
    },
    {
      "sampler": 0,
      "source": 57
    },
    {
      "sampler": 0,
      "source": 58
    },
    {
      "sampler": 0,
      "source": 59
    },
    {
      "sampler": 0,
      "source": 60
    },
    {
      "sampler": 0,
      "source": 61
    },
    {
      "sampler": 0,
      "source": 62
    },
    {
      "sampler": 0,
      "source": 63
    },
    {
      "sampler": 0,
      "source": 64
    },
    {
      "sampler": 0,
      "source": 65
    },
    {
      "sampler": 0,
      "source": 66
    },
    {
      "sampler": 0,
      "source": 67
    },
    {
      "sampler": 0,
      "source": 68
    },
    {
      "sampler": 0,
      "source": 69
    }
  ]
}
